<svg width="166" height="166" viewBox="0 0 166 166" fill="none" xmlns="http://www.w3.org/2000/svg">
<g clip-path="url(#clip0_1089_876)">
<path d="M82.9683 165.937C128.79 165.937 165.937 128.79 165.937 82.9683C165.937 37.1462 128.79 0 82.9683 0C37.1462 0 0 37.1462 0 82.9683C0 128.79 37.1462 165.937 82.9683 165.937Z" fill="#F0F0F0"/>
<path d="M82.9681 0C50.0744 0 21.6525 19.1427 8.23242 46.8953H157.703C144.284 19.1427 115.861 0 82.9681 0Z" fill="#FF9811"/>
<path d="M82.9681 165.936C115.861 165.936 144.284 146.794 157.704 119.041H8.23242C21.6525 146.794 50.0744 165.936 82.9681 165.936Z" fill="#6DA544"/>
<path d="M82.9683 111.826C98.9063 111.826 111.827 98.9058 111.827 82.9678C111.827 67.0297 98.9063 54.1094 82.9683 54.1094C67.0302 54.1094 54.1099 67.0297 54.1099 82.9678C54.1099 98.9058 67.0302 111.826 82.9683 111.826Z" fill="#0052B4"/>
<path d="M82.9682 101.005C92.9295 101.005 101.005 92.9295 101.005 82.9682C101.005 73.0069 92.9295 64.9316 82.9682 64.9316C73.0069 64.9316 64.9316 73.0069 64.9316 82.9682C64.9316 92.9295 73.0069 101.005 82.9682 101.005Z" fill="#F0F0F0"/>
<path d="M82.9683 60.7109L88.5327 73.3306L102.243 71.8394L94.0967 82.9678L102.243 94.0963L88.5327 92.6051L82.9683 105.225L77.4039 92.6051L63.6934 94.096L71.8398 82.9678L63.6934 71.8394L77.4039 73.3306L82.9683 60.7109Z" fill="#0052B4"/>
</g>
<defs>
<clipPath id="clip0_1089_876">
<rect width="165.937" height="165.937" fill="white"/>
</clipPath>
</defs>
</svg>
