<svg width="166" height="166" viewBox="0 0 166 166" fill="none" xmlns="http://www.w3.org/2000/svg">
<g clip-path="url(#clip0_1089_864)">
<path d="M82.9683 165.937C128.79 165.937 165.937 128.79 165.937 82.9683C165.937 37.1462 128.79 0 82.9683 0C37.1462 0 0 37.1462 0 82.9683C0 128.79 37.1462 165.937 82.9683 165.937Z" fill="#F0F0F0"/>
<path d="M0 82.9687C0 37.1465 37.1465 0 82.9683 0C128.79 0 165.937 37.1465 165.937 82.9687" fill="#D80027"/>
<path d="M50.5024 43.288C50.5024 31.1999 58.9979 21.1018 70.3425 18.624C68.5989 18.2436 66.7901 18.0371 64.9314 18.0371C50.9853 18.0371 39.6802 29.3422 39.6802 43.2883C39.6802 57.2345 50.9853 68.5395 64.9314 68.5395C66.7894 68.5395 68.5985 68.3331 70.3425 67.9523C58.9979 65.4746 50.5024 55.3764 50.5024 43.288Z" fill="#F0F0F0"/>
<path d="M82.9686 19.8398L84.7595 25.3511H90.5547L85.866 28.7576L87.6569 34.2689L82.9686 30.863L78.2802 34.2689L80.0712 28.7576L75.3828 25.3511H81.1776L82.9686 19.8398Z" fill="#F0F0F0"/>
<path d="M68.9106 30.6621L70.7013 36.1737H76.4964L71.808 39.5799L73.599 45.0911L68.9106 41.6852L64.2216 45.0911L66.0129 39.5799L61.3242 36.1737H67.1194L68.9106 30.6621Z" fill="#F0F0F0"/>
<path d="M97.0262 30.6621L98.8175 36.1737H104.612L99.9236 39.5799L101.715 45.0911L97.0262 41.6852L92.3378 45.0911L94.1288 39.5799L89.4404 36.1737H95.2353L97.0262 30.6621Z" fill="#F0F0F0"/>
<path d="M91.6156 46.8945L93.4065 52.4061H99.2013L94.513 55.8123L96.3039 61.3236L91.6156 57.9176L86.9272 61.3236L88.7181 55.8123L84.0298 52.4061H89.8243L91.6156 46.8945Z" fill="#F0F0F0"/>
<path d="M74.3214 46.8945L76.1121 52.4061H81.9075L77.2189 55.8123L79.0101 61.3236L74.3214 57.9176L69.6328 61.3236L71.4237 55.8123L66.7354 52.4061H72.5305L74.3214 46.8945Z" fill="#F0F0F0"/>
</g>
<defs>
<clipPath id="clip0_1089_864">
<rect width="165.937" height="165.937" fill="white"/>
</clipPath>
</defs>
</svg>
