<svg width="35" height="35" viewBox="0 0 35 35" fill="none" xmlns="http://www.w3.org/2000/svg">
<path d="M30.0152 18.5289C30.5888 17.9553 30.5888 17.0252 30.0152 16.4516L20.6674 7.1038C20.0938 6.53017 19.1638 6.53017 18.5901 7.1038C18.0165 7.67743 18.0165 8.60746 18.5901 9.18109L26.8993 17.4902L18.5901 25.7994C18.0165 26.373 18.0165 27.303 18.5901 27.8767C19.1638 28.4503 20.0938 28.4503 20.6674 27.8767L30.0152 18.5289ZM5.21235 16.0214C4.40112 16.0214 3.74349 16.679 3.74349 17.4902C3.74349 18.3015 4.40112 18.9591 5.21235 18.9591V17.4902V16.0214ZM28.9766 17.4902V16.0214H5.21235V17.4902V18.9591H28.9766V17.4902Z" fill="#17407E"/>
</svg>
