<svg width="30" height="30" viewBox="0 0 30 30" fill="none" xmlns="http://www.w3.org/2000/svg">
<path d="M11.1528 5.6622C10.8229 5.6622 10.5561 5.94583 10.5561 6.2958L10.5561 9.33035L7.70452 9.33035C7.37615 9.33114 7.10938 9.61478 7.10938 9.96474L7.10938 24.3463C7.10938 24.6955 7.37613 24.9791 7.70452 24.9791L18.5049 24.9791C18.834 24.9791 19.1007 24.6963 19.1015 24.3463L19.1015 21.3085L21.9554 21.3085C22.2845 21.3085 22.5513 21.0249 22.5513 20.6749L22.5513 10.4048C22.5506 10.237 22.4874 10.0764 22.3755 9.95894L18.5132 5.84667C18.42 5.7484 18.299 5.68528 18.1683 5.6677C18.1427 5.66371 18.1164 5.66211 18.0901 5.66211L11.1528 5.6622ZM11.7487 6.93018L17.494 6.93018L17.494 10.4057L17.494 10.4049C17.494 10.7549 17.7608 11.0393 18.0907 11.0393L21.3593 11.0393L21.3593 20.0423L11.7486 20.0423L11.7487 6.93018ZM18.6865 7.82743L20.5147 9.77215L18.6865 9.77215L18.6865 7.82743ZM8.3011 10.5983L10.557 10.5983L10.557 20.676L10.5562 20.6752C10.5562 21.0251 10.823 21.3088 11.1529 21.3088L17.9097 21.3088L17.9097 23.7097L8.30123 23.7097L8.3011 10.5983Z" fill="black"/>
</svg>
