<svg width="203" height="50" viewBox="0 0 203 50" fill="none" xmlns="http://www.w3.org/2000/svg">
<g clip-path="url(#clip0_653_5861)">
<path d="M199.623 45.9371C199.747 45.9384 199.87 45.9142 199.985 45.8661C200.1 45.818 200.203 45.747 200.289 45.6576C200.375 45.5681 200.441 45.4621 200.484 45.3461C200.527 45.2301 200.546 45.1066 200.538 44.9832C200.538 44.3066 200.127 43.9834 199.284 43.9834H197.922V47.5255H198.434V45.9815H199.064L199.078 46.0002L200.056 47.5255H200.603L199.552 45.9469L199.623 45.9371ZM199.03 45.5823H198.436V44.3848H199.189C199.578 44.3848 200.021 44.448 200.021 44.9539C200.021 45.5357 199.573 45.5823 199.027 45.5823" fill="#2C65BB"/>
<path d="M0 7.20703H7.56351V34.5693H21.5658V41.5016H0V7.20703Z" fill="#2C65BB"/>
<path d="M24.9109 18.2481H32.177V41.488H24.9109V18.2481ZM28.544 6.69434C29.3776 6.69448 30.1924 6.94013 30.8855 7.40022C31.5786 7.8603 32.1187 8.51416 32.4376 9.27911C32.7565 10.0441 32.8399 10.8858 32.6772 11.6978C32.5144 12.5098 32.113 13.2556 31.5234 13.841C30.9339 14.4264 30.1829 14.825 29.3652 14.9865C28.5476 15.148 27.7001 15.065 26.93 14.7482C26.1598 14.4313 25.5016 13.8947 25.0384 13.2063C24.5753 12.5179 24.3281 11.7085 24.3281 10.8806C24.3281 10.3308 24.4372 9.78637 24.6491 9.27842C24.8609 8.77047 25.1715 8.30894 25.563 7.9202C25.9544 7.53146 26.4192 7.22312 26.9307 7.01278C27.4422 6.80245 27.9904 6.69424 28.544 6.69434Z" fill="#2C65BB"/>
<path d="M62.5703 7.20215H69.8364V27.6975L78.0712 18.2388H86.9797L77.443 28.998L86.7791 41.4989H77.6466L69.9333 30.0113H69.8379V41.4974H62.5718L62.5703 7.20215Z" fill="#2C65BB"/>
<path d="M36.2031 18.2505H43.1808V21.4264H43.2799C43.9769 20.2405 44.9851 19.2649 46.1969 18.6037C47.4086 17.9425 48.7784 17.6206 50.16 17.6724C57.5283 17.6724 58.8846 22.4871 58.8846 28.7421V41.4866H51.6185V30.1876C51.6185 27.4905 51.5686 24.0236 47.8341 24.0236C44.0573 24.0236 43.4745 26.9605 43.4745 29.9914V41.4836H36.2084L36.2031 18.2505Z" fill="#2C65BB"/>
<path d="M102.283 27.166C102.297 26.5805 102.191 25.9984 101.971 25.4547C101.752 24.9111 101.424 24.4174 101.007 24.0034C100.59 23.5895 100.092 23.2639 99.545 23.0464C98.9974 22.829 98.4112 22.7242 97.8217 22.7384C96.5522 22.66 95.3024 23.0801 94.3419 23.9084C93.3814 24.7366 92.7871 25.9066 92.6871 27.166H102.283ZM108.438 37.4644C107.23 38.9186 105.712 40.0879 103.994 40.8876C102.275 41.6873 100.399 42.0974 98.5014 42.0882C91.2354 42.0882 85.418 37.2712 85.418 29.812C85.418 22.3528 91.2346 17.5381 98.5014 17.5381C105.293 17.5381 109.552 22.349 109.552 29.812V32.0747H92.6871C92.897 33.3579 93.5669 34.5225 94.5732 35.354C95.5795 36.1854 96.8544 36.6276 98.1631 36.5992C99.1973 36.5928 100.213 36.3297 101.119 35.8337C102.025 35.3376 102.791 34.6245 103.348 33.7593L108.438 37.4644Z" fill="#2C65BB"/>
<path d="M124.698 23.8671C121.065 23.8671 118.885 26.2763 118.885 29.7868C118.885 33.2973 121.064 35.7088 124.698 35.7088C128.332 35.7088 130.516 33.3033 130.516 29.7868C130.516 26.2703 128.336 23.8671 124.698 23.8671ZM137.206 41.485H130.516V38.4029H130.417C129.578 39.524 128.49 40.4374 127.237 41.0722C125.984 41.7069 124.6 42.0457 123.194 42.0623C116.212 42.0623 111.613 37.0581 111.613 29.9815C111.613 23.4822 115.683 17.5144 122.373 17.5144C125.38 17.5144 128.189 18.3315 129.837 20.5964H129.932V7.2002H137.205L137.206 41.485Z" fill="#2C65BB"/>
<path d="M186.256 41.4977H178.99V30.1965C178.99 27.5016 178.942 24.0325 175.211 24.0325C171.427 24.0325 170.848 26.9687 170.848 30.0003V41.497H163.582V18.2571H170.557V21.4331H170.655C171.353 20.2477 172.361 19.2725 173.573 18.6114C174.785 17.9503 176.155 17.6281 177.537 17.679C184.901 17.679 186.259 22.49 186.259 28.7487L186.256 41.4977ZM155.383 15.0804C154.549 15.0805 153.734 14.8351 153.04 14.375C152.347 13.915 151.806 13.261 151.487 12.4959C151.168 11.7307 151.084 10.8887 151.247 10.0763C151.409 9.26396 151.811 8.5177 152.4 7.93192C152.99 7.34614 153.741 6.94716 154.559 6.78543C155.377 6.6237 156.225 6.70648 156.995 7.0233C157.766 7.34013 158.424 7.87677 158.888 8.56536C159.351 9.25395 159.599 10.0636 159.599 10.8918C159.599 11.4418 159.49 11.9864 159.278 12.4945C159.066 13.0026 158.756 13.4643 158.364 13.8533C157.973 14.2422 157.508 14.5508 156.997 14.7613C156.485 14.9719 155.937 15.0803 155.383 15.0804ZM159.016 41.4977H151.742V18.2571H159.016V41.4977ZM189.879 0.00331817H148.091C147.143 -0.00731203 146.229 0.356468 145.55 1.01472C144.872 1.67297 144.484 2.57184 144.473 3.5138V45.1879C144.484 46.1303 144.871 47.0298 145.55 47.6887C146.228 48.3477 147.142 48.7121 148.091 48.7021H189.879C190.83 48.714 191.746 48.3505 192.427 47.6916C193.109 47.0327 193.499 46.1322 193.512 45.1879V3.5108C193.498 2.56696 193.108 1.66707 192.427 1.00884C191.745 0.350603 190.829 -0.0121379 189.879 0.000310116" fill="#2C65BB"/>
<path d="M199.093 42.4053C198.209 42.4137 197.364 42.7695 196.744 43.3948C196.123 44.0202 195.777 44.8641 195.781 45.7422C195.786 46.6202 196.14 47.4608 196.766 48.0801C197.393 48.6995 198.241 49.0472 199.125 49.0472C200.009 49.0472 200.857 48.6995 201.484 48.0801C202.111 47.4608 202.465 46.6202 202.469 45.7422C202.473 44.8641 202.127 44.0202 201.507 43.3948C200.886 42.7695 200.041 42.4137 199.157 42.4053H199.093ZM199.093 48.667C198.513 48.6766 197.943 48.5152 197.456 48.2032C196.969 47.8913 196.585 47.4427 196.354 46.9143C196.123 46.386 196.056 45.8015 196.159 45.2348C196.263 44.6681 196.533 44.1447 196.937 43.7307C197.34 43.3167 197.858 43.0307 198.424 42.909C198.991 42.7872 199.582 42.8351 200.121 43.0467C200.66 43.2582 201.125 43.6238 201.455 44.0973C201.785 44.5708 201.966 45.1309 201.976 45.7068C201.976 45.7233 201.976 45.7391 201.976 45.7556C201.992 46.5111 201.706 47.242 201.179 47.7877C200.653 48.3334 199.93 48.6491 199.169 48.6655H199.094" fill="#2C65BB"/>
</g>
<defs>
<clipPath id="clip0_653_5861">
<rect width="202.469" height="49.1062" fill="white"/>
</clipPath>
</defs>
</svg>
