<svg width="23" height="23" viewBox="0 0 23 23" fill="none" xmlns="http://www.w3.org/2000/svg">
<path d="M18.0508 8.17442C17.4899 6.91467 16.5916 5.83456 15.4552 5.0535C14.3187 4.27244 12.9884 3.82086 11.6113 3.74869C10.2342 3.67652 8.86403 3.98657 7.65217 4.64456C7.02256 4.98641 6.44844 5.41525 5.94541 5.91589" stroke="#0B0B0B" stroke-width="1.40198" stroke-linecap="round"/>
<path d="M3.02495 5.15434L3.7067 8.10742C3.82282 8.61039 4.32468 8.92399 4.82765 8.80788L7.78073 8.12613" stroke="#0B0B0B" stroke-width="1.40198" stroke-linecap="round"/>
<path d="M4.38728 14.2565C4.94816 15.5163 5.84648 16.5964 6.98293 17.3774C8.11937 18.1585 9.44967 18.6101 10.8268 18.6822C12.2038 18.7544 13.574 18.4444 14.7859 17.7864C15.3603 17.4745 15.8885 17.0903 16.3587 16.6451" stroke="#0B0B0B" stroke-width="1.40198" stroke-linecap="round"/>
<path d="M19.4125 17.2763L18.7308 14.3232C18.6147 13.8203 18.1128 13.5067 17.6098 13.6228L14.6568 14.3045" stroke="#0B0B0B" stroke-width="1.40198" stroke-linecap="round"/>
</svg>
