<svg width="30" height="30" viewBox="0 0 30 30" fill="none" xmlns="http://www.w3.org/2000/svg">
<path d="M14.9999 8.49414C10.65 8.49414 6.64763 10.8821 4.57465 14.7064C4.52566 14.7968 4.5 14.898 4.5 15.0008C4.5 15.1036 4.52566 15.2048 4.57465 15.2952C6.64763 19.1195 10.65 21.5043 14.9999 21.5075C14.9997 21.5075 15.0001 21.5075 14.9999 21.5075C19.3494 21.5068 23.3533 19.1248 25.4288 15.3024C25.4778 15.2121 25.5035 15.1109 25.5036 15.0081C25.5036 14.9053 25.478 14.8041 25.4291 14.7137C23.3575 10.8857 19.3524 8.49761 14.9999 8.49414C15.0002 8.49414 14.9996 8.49414 14.9999 8.49414ZM15.0003 9.72954C18.7888 9.72954 22.2775 11.7487 24.1766 15.0072C22.2743 18.2606 18.7865 20.2712 15.0009 20.272C11.2147 20.272 7.72723 18.256 5.82697 15.0008C7.72723 11.7457 11.2143 9.73243 15.0003 9.72954ZM15.0003 10.6327C12.5952 10.6327 10.6322 12.5956 10.6322 15.0008C10.6322 16.159 11.0926 17.2705 11.9115 18.0895C12.7306 18.9085 13.842 19.369 15.0003 19.369C16.1586 19.369 17.2701 18.9085 18.0891 18.0895C18.908 17.2705 19.3685 16.159 19.3685 15.0008C19.3685 13.8425 18.908 12.7311 18.0891 11.912C17.2701 11.093 16.1586 10.6327 15.0003 10.6327ZM15.0003 11.8681C15.8314 11.8681 16.6278 12.198 17.2155 12.7856C17.8031 13.3733 18.133 14.1697 18.133 15.0008C18.133 15.8319 17.8031 16.6283 17.2155 17.2159C16.6278 17.8036 15.8314 18.1335 15.0003 18.1335C14.1693 18.1335 13.3729 17.8036 12.7851 17.2159C12.1975 16.6283 11.8677 15.8319 11.8677 15.0008C11.8677 13.2633 13.263 11.8681 15.0003 11.8681Z" fill="black"/>
</svg>
